<svg xmlns="http://www.w3.org/2000/svg" viewBox="0 0 64 64" width="64" height="64">
  <!-- Background -->
  <rect width="64" height="64" fill="#333"/>
  
  <!-- Barcode lines -->
  <rect x="4" y="12" width="2" height="40" fill="#fff"/>
  <rect x="8" y="12" width="1" height="40" fill="#fff"/>
  <rect x="11" y="12" width="2" height="40" fill="#fff"/>
  <rect x="15" y="12" width="1" height="40" fill="#fff"/>
  <rect x="18" y="12" width="3" height="40" fill="#fff"/>
  <rect x="23" y="12" width="1" height="40" fill="#fff"/>
  <rect x="26" y="12" width="2" height="40" fill="#fff"/>
  <rect x="30" y="12" width="1" height="40" fill="#fff"/>
  <rect x="33" y="12" width="2" height="40" fill="#fff"/>
  <rect x="37" y="12" width="1" height="40" fill="#fff"/>
  <rect x="40" y="12" width="3" height="40" fill="#fff"/>
  <rect x="45" y="12" width="1" height="40" fill="#fff"/>
  <rect x="48" y="12" width="2" height="40" fill="#fff"/>
  <rect x="52" y="12" width="1" height="40" fill="#fff"/>
  <rect x="55" y="12" width="2" height="40" fill="#fff"/>
  
  <!-- Scan line (dashed) -->
  <line x1="2" y1="32" x2="62" y2="32" stroke="#ff6b35" stroke-width="2" stroke-dasharray="4,4" opacity="0.8"/>
</svg>

